<?xml version="1.0" encoding="UTF-8"?>
<svg id="Layer_2" data-name="Layer 2" xmlns="http://www.w3.org/2000/svg" viewBox="0 0 278.93 242.01">
  <defs>
    <style>
      .cls-1 {
        fill: #fff;
        stroke-width: 0px;
      }
    </style>
  </defs>
  <g id="Layer_1-2" data-name="Layer 1">
    <path class="cls-1" d="M206.99,10.94l-7.53,11.9c-1.05,1.66-1.08,3.78-.07,5.46l54.4,90.88-49.74,89.38L92.81,22.72l-11.44-19.11C80.01,1.33,77.54-.04,74.89,0l-3.91.06c-2.37.04-4.54,1.34-5.69,3.41l-5.2,9.35L1.1,118.82c-1.52,2.73-1.46,6.06.14,8.73l64.07,107.02c2.09,3.5,7.14,3.56,9.32.11l7.22-11.42c1.1-1.75,1.13-3.96.07-5.73L25.2,122.8l48.52-87.19,109.97,183.7,10.77,17.98c1.78,2.97,5.01,4.77,8.47,4.71l3.56-.06c3.32-.05,6.37-1.87,7.98-4.78l3.23-5.81,60.04-107.91c1.61-2.9,1.56-6.44-.15-9.29L215.88,11.05c-2-3.33-6.81-3.39-8.88-.11Z"/>
    <polygon class="cls-1" points="74.39 50.72 35.4 120.79 115.57 119.52 74.39 50.72"/>
    <polygon class="cls-1" points="203.66 193.28 242.65 123.21 162.47 124.48 203.66 193.28"/>
  </g>
</svg>
