<?xml version="1.0" encoding="UTF-8"?>
<svg id="Layer_2" data-name="Layer 2" xmlns="http://www.w3.org/2000/svg" viewBox="0 0 58.27 55.16">
  <defs>
    <style>
      .cls-1 {
        fill-rule: evenodd;
      }

      .cls-1, .cls-2 {
        fill: #fff;
        stroke-width: 0px;
      }
    </style>
  </defs>
  <g id="Layer_2-2" data-name="Layer 2">
    <g>
      <path class="cls-2" d="M0,44.72h1.37c3.19,0,5.77-2.8,5.77-6.25V.14S0,.14,0,.14v44.58Z"/>
      <path class="cls-2" d="M29.5,19.99l2.46,7.89V.14h-1.37c-3.19,0-5.77,2.8-5.77,6.25v9.44c2.14.32,3.97,1.91,4.68,4.18Z"/>
      <polygon class="cls-2" points="24.82 33.44 8.38 .19 8.38 14.37 23.59 44.72 30.37 44.72 24.82 27.74 24.82 33.44"/>
      <polygon class="cls-2" points="27.21 44.72 30.37 44.72 27.21 35.04 27.21 44.72"/>
      <path class="cls-2" d="M30.47,38.32l1.49-4.75v-5.7l-2.46-7.89c-.71-2.26-2.53-3.86-4.68-4.18v11.93l2.39,7.3v-7.16l3.26,10.44Z"/>
      <polygon class="cls-2" points="30.47 38.32 27.21 27.88 27.21 35.04 30.37 44.72 31.96 44.72 31.96 33.57 30.47 38.32"/>
      <path class="cls-2" d="M47.1,12.95h-3.18c-2.47,0-4.67,1.7-5.46,4.24l-1.56,4.95h7.19l3.01-9.19Z"/>
      <polygon class="cls-2" points="33.32 33.57 33.32 44.72 36.74 44.72 44.12 22.14 36.91 22.14 33.32 33.57"/>
      <path class="cls-1" d="M39.88.96c.08-.04.15-.04.16,0q.01.06.04.13s-.04.12-.13.16q-.79.44-1.48.92c-.06.05-.12.05-.11,0q.01-.07.02-.14s.07-.12.12-.17q.64-.47,1.38-.9h0ZM42.11.19c.08-.02.17,0,.2.02t.1.09s0,.08-.1.1q-.86.24-1.73.56c-.08.04-.18.03-.19-.01q-.03-.07-.05-.13s.05-.09.13-.13q.82-.3,1.63-.51h0ZM41.85.06c.07-.01.15-.02.18-.01t.08.02s-.01.04-.09.05q-.79.19-1.58.48c-.08.03-.15.04-.16.02t-.01-.06s.05-.05.13-.08q.74-.26,1.47-.42h0ZM38.72,1.51q.53-.42,1.13-.79c.07-.04.13-.06.13-.04t.01.06s-.06.08-.13.12q-.71.41-1.32.88c-.06.05-.09.07-.07.04t.06-.08s0,0,.01-.02h0c.06-.06.11-.12.18-.18h0ZM46.88,9.41q-.15.16-.32.33c-.05.05-.09.07-.08.04t.03-.1s.07-.11.13-.16q.46-.45.8-.91c-.16.28-.36.55-.57.79h0ZM48.04,7.27q-.03.1-.08.22s-.04.03-.03-.03q.02-.09.02-.19c0-.07.04-.16.07-.21q.11-.21.16-.4h0c-.03.21-.08.42-.14.62h0ZM48.23,6.35q-.07.23-.2.46s-.06.02-.06-.05q0-.11,0-.23c0-.08.02-.18.05-.22q.19-.28.26-.52h0c0,.19-.02.38-.04.56h0ZM48.26,5.51q-.07.25-.29.54s-.08,0-.09-.09q-.02-.13-.05-.26c-.01-.09,0-.19.04-.22q.27-.28.34-.51h0c.03.18.04.35.04.53h0ZM48.19,4.72q-.08.2-.38.47s-.09-.02-.12-.1q-.04-.14-.08-.28c-.03-.09-.01-.18.03-.22q.33-.23.43-.37s0,0,0,0h0c.04.16.08.32.11.48h0ZM47.98,3.92h0s.02.06.02.06q-.12.12-.46.32s-.11-.02-.15-.11q-.05-.13-.11-.28c-.04-.09-.03-.19.02-.21q.36-.15.51-.21s.01.02.03.05c.05.13.1.25.14.38h0ZM47.69,3.19s.03.05.02.05q-.16.03-.53.16c-.05.01-.12-.04-.17-.13q-.07-.13-.13-.26c-.05-.08-.04-.17.01-.18q.39-.07.57-.05s.01.02.02.03c.07.13.14.25.2.38h0ZM47.34,2.57q-.19-.05-.59-.01c-.05.01-.14-.05-.18-.13q-.07-.12-.14-.24c-.05-.08-.05-.15,0-.15q.39,0,.6.11h0c.11.14.21.28.3.42h0ZM46.87,1.95q-.22-.11-.6-.14c-.05,0-.14-.05-.19-.12q-.08-.11-.15-.2c-.06-.07-.05-.11,0-.11q.33.06.55.19h0c.13.12.26.26.38.39h0ZM46.28,1.37q-.22-.12-.52-.19c-.05,0-.14-.06-.19-.11q-.08-.08-.16-.15c-.05-.04-.05-.08,0-.06q.22.07.4.16h0c.16.11.32.23.47.36h0ZM45.56.85q-.15-.08-.32-.14c-.06-.02-.14-.06-.19-.09q-.08-.05-.15-.1c-.05-.03-.05-.04,0-.02t.09.04h0c.2.09.39.19.58.31h0ZM44.28.26s.03,0,.07.02c.05.02.04.03-.01.02q-.65-.07-1.4-.01c-.08.01-.18,0-.22-.04q-.05-.04-.1-.09s0-.05.08-.06q.65-.02,1.21.06c.13.03.25.06.38.1h0ZM43.45.07q-.42-.03-.87-.03c-.08,0-.16,0-.19,0t-.09-.02s0,0,.03,0h0c.38-.02.76,0,1.12.06h0ZM44.07,10.92c.08-.03.17-.03.18,0t.05.07s-.04.05-.12.08q-.77.2-1.51.3c-.07,0-.16,0-.19,0t-.1-.04s0-.04.07-.05q.79-.13,1.61-.36h0ZM46.18,9.88c.07-.05.12-.06.11-.02t-.03.09s-.07.08-.13.13q-.66.42-1.39.78c-.08.03-.15.04-.16.02t-.04-.07s.05-.09.13-.12q.79-.38,1.5-.82h0ZM43.83,10.51c.09-.03.19-.02.21.03q.04.07.08.14s-.03.1-.11.13q-.85.25-1.66.39c-.08.01-.17,0-.21-.04q-.05-.05-.11-.1s0-.09.07-.1q.85-.18,1.74-.45h0ZM46.15,9.4c.08-.05.15-.05.15.01q0,.08,0,.16c0,.05-.05.13-.13.17q-.74.44-1.56.83c-.08.04-.17.03-.19-.01q-.03-.07-.07-.14c-.02-.05.03-.12.12-.16q.86-.4,1.66-.86h0ZM47.71,8.03s.05-.04.03.01q-.03.07-.05.15s-.06.13-.09.18q-.38.51-.92,1.01c-.06.05-.12.05-.11,0q0-.07,0-.15c0-.05.06-.15.12-.2q.59-.5,1.02-1h0ZM41.05,10.54c.08-.01.19.03.23.08q.07.08.14.16s.02.1-.06.1q-.71,0-1.27-.1s-.13-.06-.18-.09q-.08-.06-.16-.11c-.05-.04-.06-.07,0-.05q.58.06,1.3,0h0ZM43.51,9.89c.1-.04.21,0,.24.06q.05.1.1.2c.03.06-.02.14-.12.17q-.91.29-1.78.48c-.09.01-.19-.01-.23-.07q-.07-.08-.14-.16c-.04-.06,0-.12.08-.14q.9-.23,1.85-.54h0ZM46.02,8.72c.09-.05.17-.03.18.04q.02.11.04.22c.02.07-.04.16-.12.21q-.82.46-1.71.87c-.09.04-.19.02-.22-.05q-.05-.1-.09-.2c-.03-.07.02-.16.12-.2q.93-.43,1.8-.89h0ZM47.77,7.39s.07-.03.07.04q0,.1-.02.2c-.01.06-.05.15-.08.2q-.45.5-1.07.99c-.07.05-.14.04-.15-.03q-.02-.1-.03-.21c-.01-.07.04-.18.12-.23q.66-.49,1.16-.97h0ZM45.79,7.89c.09-.05.19-.02.21.07q.04.13.07.26c.02.08-.03.19-.11.24q-.89.47-1.84.9c-.1.04-.21,0-.24-.07q-.05-.13-.11-.26c-.04-.08.02-.2.12-.24q.99-.44,1.91-.9h0ZM47.71,6.62s.09-.01.11.07q0,.12.02.24c0,.08-.03.17-.07.22q-.52.47-1.2.95c-.08.05-.16.03-.17-.06q-.03-.13-.07-.26c-.02-.09.03-.2.11-.25q.72-.46,1.29-.91h0ZM40.07,9.06c.08-.02.2.03.24.12q.08.13.15.26c.05.08.01.17-.07.19q-.75.14-1.34.18c-.05,0-.13-.05-.18-.12q-.08-.1-.15-.21c-.05-.07-.05-.14,0-.13q.59-.09,1.35-.27h0ZM42.7,8.16c.11-.04.23,0,.27.11q.07.14.13.29c.04.09-.01.21-.12.24q-1,.36-1.95.66c-.09.03-.21-.02-.26-.11q-.07-.13-.15-.26c-.04-.09-.01-.19.08-.22q.96-.33,1.98-.71h0ZM47.54,5.75c.05-.04.11,0,.13.09q.03.13.05.27c.01.08-.01.18-.06.23q-.58.43-1.32.88c-.09.05-.18.01-.21-.08q-.04-.14-.09-.29c-.03-.1.01-.22.1-.26q.78-.43,1.39-.84h0ZM45.1,5.89c.1-.04.21,0,.26.11q.06.16.12.32c.04.11-.01.23-.11.27q-.98.46-2.02.91c-.11.05-.23,0-.28-.1q-.07-.16-.14-.32c-.05-.11,0-.23.12-.28q1.06-.46,2.06-.9h0ZM47.27,4.82c.06-.04.13.02.16.11l.09.28c.02.09,0,.19-.05.23q-.63.38-1.43.81c-.09.04-.19,0-.23-.1q-.06-.16-.11-.32c-.04-.1,0-.23.1-.27q.81-.4,1.47-.75h0ZM39.13,7.14c.08-.04.19.01.23.12q.07.15.14.31c.05.1.01.2-.07.24q-.74.27-1.32.46s-.12-.04-.16-.13q-.06-.13-.12-.26c-.04-.09-.03-.17.02-.19q.56-.24,1.29-.54h0ZM41.78,6.03c.11-.05.23,0,.28.11q.07.17.14.33c.05.11,0,.24-.11.29q-1.04.42-2,.8c-.1.03-.21-.02-.25-.12q-.07-.16-.14-.31c-.05-.11,0-.22.09-.26q.96-.4,2-.84h0ZM44.66,4.81c.1-.04.22.01.27.12q.06.17.13.33c.05.11,0,.23-.1.28q-1.01.44-2.07.89c-.11.05-.23,0-.28-.11q-.07-.17-.14-.33c-.05-.11,0-.24.12-.29q1.06-.45,2.08-.88h0ZM46.91,3.86c.06-.03.14.03.18.13q.06.14.11.28c.03.09.02.2-.04.23q-.67.33-1.5.71c-.09.04-.2-.01-.24-.12q-.07-.16-.13-.32c-.04-.1,0-.23.09-.27q.85-.36,1.54-.65h0ZM41.32,4.93c.11-.05.23,0,.28.11q.07.16.14.34c.05.11,0,.24-.11.28q-1.04.44-1.99.86c-.09.04-.2-.02-.24-.12q-.06-.16-.12-.31c-.04-.11,0-.23.09-.27q.94-.43,1.96-.89h0ZM46.48,2.95c.07-.02.15.04.2.13q.07.13.13.27c.04.09.03.18-.03.21q-.7.27-1.55.61c-.09.04-.21-.02-.25-.12q-.07-.16-.14-.32c-.05-.1,0-.21.09-.25q.86-.3,1.56-.54h0ZM38.41,5.13c.08-.04.16,0,.19.1q.05.15.1.31c.04.1,0,.22-.09.26q-.69.38-1.2.7s-.09-.02-.12-.11q-.03-.13-.06-.26c-.02-.09,0-.18.03-.21q.48-.36,1.14-.78h0ZM46.01,2.1c.06,0,.16.04.2.13q.07.12.15.25c.05.08.04.16-.03.18q-.71.21-1.57.49c-.1.03-.21-.02-.26-.11q-.07-.15-.15-.3c-.04-.09,0-.2.09-.22q.86-.25,1.57-.41h0ZM40.52,2.92c.1-.05.22-.01.25.08q.06.14.11.28c.03.1-.02.21-.12.26q-.97.46-1.86.93c-.09.05-.17,0-.2-.09q-.04-.14-.08-.28c-.02-.09.02-.2.11-.26q.85-.47,1.79-.93h0ZM43.26,1.86c.1-.03.21,0,.27.09q.07.13.14.26c.05.09,0,.19-.09.23q-1.01.36-2.03.77c-.11.05-.23,0-.27-.09q-.06-.15-.12-.29c-.04-.09.02-.2.12-.24q1.01-.4,1.99-.73h0ZM45.5,1.37c.06,0,.16.04.21.11q.08.11.16.21c.05.07.04.14-.03.15q-.71.14-1.57.37c-.1.03-.21-.02-.26-.11q-.07-.13-.15-.25c-.04-.08-.01-.17.08-.2q.84-.19,1.55-.28h0ZM38.04,3.39c.06-.04.13-.03.14.05q.02.12.03.24c.02.08-.03.19-.1.24q-.58.46-.99.89s-.06.01-.05-.06q0-.11,0-.22c0-.07.03-.16.06-.21q.36-.45.9-.94h0ZM40.23,2.09c.1-.05.2-.02.22.06q.05.12.09.24c.04.08-.02.19-.12.23q-.93.47-1.76.94c-.08.05-.16.02-.18-.06q-.02-.12-.05-.24c-.01-.08.04-.18.11-.23q.79-.48,1.68-.94h0ZM42.82,1.11c.1-.02.2,0,.25.08q.07.1.13.21c.04.08,0,.16-.1.19q-.97.32-1.96.71c-.1.04-.21.01-.25-.07q-.04-.12-.1-.24c-.03-.08.02-.17.12-.21q.96-.37,1.89-.66h0ZM44.99.79c.06,0,.15.05.21.1q.08.08.15.17c.05.05.04.1-.02.1q-.71.07-1.54.24c-.1.02-.21-.02-.25-.09q-.07-.11-.14-.21c-.04-.06,0-.14.08-.16q.81-.13,1.5-.16h0ZM40.01,1.42c.09-.04.18-.03.19.03q.04.1.07.19c.02.07-.03.16-.13.2q-.87.45-1.63.93c-.07.05-.14.04-.14-.03q0-.1-.02-.2c0-.06.05-.15.12-.2q.72-.48,1.54-.93h0ZM42.43.54c.1-.02.19,0,.23.05q.06.07.12.16c.04.06,0,.12-.09.15q-.92.28-1.85.64c-.1.04-.2.02-.22-.04q-.03-.1-.07-.19c-.03-.05.03-.13.12-.17q.89-.33,1.77-.59h0ZM44.49.39c.05.01.15.04.2.08q.08.05.15.11c.05.04.04.06-.02.06q-.68,0-1.48.12c-.09.02-.2-.02-.24-.07q-.06-.08-.12-.15s0-.09.08-.11q.77-.08,1.43-.03h0Z"/>
    </g>
  </g>
</svg>